<?xml version="1.0" encoding="UTF-8" standalone="no"?>
<svg
   xmlns:dc="http://purl.org/dc/elements/1.1/"
   xmlns:cc="http://creativecommons.org/ns#"
   xmlns:rdf="http://www.w3.org/1999/02/22-rdf-syntax-ns#"
   xmlns:svg="http://www.w3.org/2000/svg"
   xmlns="http://www.w3.org/2000/svg"
   xmlns:sodipodi="http://sodipodi.sourceforge.net/DTD/sodipodi-0.dtd"
   xmlns:inkscape="http://www.inkscape.org/namespaces/inkscape"
   data-v-fde0c5aa=""
   viewBox="0 0 300 300"
   class="iconLeft"
   version="1.1"
   id="svg22"
   sodipodi:docname="jinah.svg"
   inkscape:version="1.0.2 (e86c870879, 2021-01-15, custom)">
  <metadata
     id="metadata26">
    <rdf:RDF>
      <cc:Work
         rdf:about="">
        <dc:format>image/svg+xml</dc:format>
        <dc:type
           rdf:resource="http://purl.org/dc/dcmitype/StillImage" />
        <dc:title></dc:title>
      </cc:Work>
    </rdf:RDF>
  </metadata>
  <sodipodi:namedview
     pagecolor="#ffffff"
     bordercolor="#666666"
     borderopacity="1"
     objecttolerance="10"
     gridtolerance="10"
     guidetolerance="10"
     inkscape:pageopacity="0"
     inkscape:pageshadow="2"
     inkscape:window-width="2048"
     inkscape:window-height="1089"
     id="namedview24"
     showgrid="false"
     inkscape:zoom="0.25043365"
     inkscape:cx="-395.63857"
     inkscape:cy="552.5087"
     inkscape:window-x="-8"
     inkscape:window-y="-8"
     inkscape:window-maximized="1"
     inkscape:current-layer="svg22" />
  <!---->
  <defs
     data-v-fde0c5aa=""
     id="defs2">
    <!---->
  </defs>
  <rect
     data-v-fde0c5aa=""
     fill="#0d9e86"
     x="0"
     y="0"
     width="1200"
     height="1200"
     class="logo-background-square"
     id="rect4"
     style="stroke-width:4"
     inkscape:export-xdpi="96"
     inkscape:export-ydpi="96" />
  <defs
     data-v-fde0c5aa=""
     id="defs6">
    <!---->
  </defs>
  <defs
     data-v-fde0c5aa=""
     id="defs11">
    <!---->
  </defs>
  <g
     data-v-fde0c5aa=""
     id="6eb46e39-561c-4ad9-ba11-aa042c2af851"
     stroke="none"
     fill="#fbe1d5"
     transform="matrix(9.4794129,0,0,9.4794129,130.39931,131.66013)"
     style="fill:#ffffff;fill-opacity:1"
     inkscape:export-xdpi="96"
     inkscape:export-ydpi="96">
    <path
       d="m 88.077,34.411 h -4.475 l -4.824,3.383 h 7.867 c 0.373,0 0.742,0.047 1.093,0.132 2.162,0.504 3.77,2.461 3.77,4.793 v 43.093 a 6.968,6.968 0 0 0 3.437,-6.02 v -38.42 c -10e-4,-3.847 -3.077,-6.961 -6.868,-6.961 z"
       id="path13"
       style="fill:#ffffff;fill-opacity:1" />
    <path
       d="M 86.837,40.688 H 10.199 a 1.449,1.449 0 1 1 0,-2.898 h 5.903 l 1.957,-1.414 2.72,-1.965 h -9.714 c -3.829,0 -6.932,3.114 -6.932,6.952 v 45.921 c 0,3.843 3.103,6.956 6.932,6.956 h 70.861 c 3.827,0 6.933,-3.113 6.933,-6.956 v -44.57 a 2.03,2.03 0 0 0 -2.022,-2.026 z"
       id="path15"
       style="fill:#ffffff;fill-opacity:1" />
    <path
       d="m 49.752,26.299 c -5.534,-0.29 -10.249,3.943 -10.524,9.453 a 9.991,9.991 0 0 0 0.137,2.177 h 19.797 c 0.062,-0.368 0.106,-0.741 0.126,-1.122 0.273,-5.515 -3.998,-10.219 -9.536,-10.508 z"
       id="path17"
       style="fill:#ffffff;fill-opacity:1" />
    <path
       d="m 39.228,35.752 c 0.275,-5.509 4.991,-9.742 10.524,-9.453 5.538,0.289 9.808,4.992 9.536,10.507 -0.02,0.381 -0.064,0.754 -0.126,1.122 H 74.739 L 84.561,30.636 64.814,4.572 19.895,37.929 h 19.47 A 9.991,9.991 0 0 1 39.228,35.752 Z M 40.884,5.019 22.209,33.399 51.353,11.92 Z"
       id="path19"
       style="fill:#ffffff;fill-opacity:1" />
  </g>
  <!---->
</svg>
